<svg width="113" height="40" viewBox="0 0 113 40" fill="none" xmlns="http://www.w3.org/2000/svg">
<rect x="0.823893" y="0.823893" width="110.673" height="37.8991" rx="18.9495" fill="#7BFF4C" fill-opacity="0.15"/>
<path d="M38.7232 20.1854C38.7232 19.094 38.4136 18.025 37.8302 17.1025C37.2469 16.1801 36.4137 15.4421 35.4276 14.9743V14.0062C35.4269 12.9446 35.0844 11.9114 34.4508 11.0595C33.8172 10.2076 32.9262 9.58237 31.9096 9.27625C30.8931 8.97012 29.805 8.9994 28.8063 9.35976C27.8077 9.72011 26.9516 10.3924 26.3648 11.2771C25.7779 10.3924 24.9218 9.72011 23.9232 9.35976C22.9246 8.9994 21.8365 8.97012 20.8199 9.27625C19.8034 9.58237 18.9124 10.2076 18.2788 11.0595C17.6452 11.9114 17.3027 12.9446 17.302 14.0062V14.9743C16.3157 15.442 15.4824 16.1799 14.8989 17.1024C14.3154 18.0248 14.0056 19.0939 14.0056 20.1854C14.0056 21.277 14.3154 22.3461 14.8989 23.2685C15.4824 24.191 16.3157 24.9289 17.302 25.3966V25.5407C17.3027 26.6024 17.6452 27.6356 18.2788 28.4875C18.9124 29.3394 19.8034 29.9646 20.8199 30.2707C21.8365 30.5769 22.9246 30.5476 23.9232 30.1872C24.9218 29.8269 25.7779 29.1546 26.3648 28.2699C26.9516 29.1546 27.8077 29.8269 28.8063 30.1872C29.805 30.5476 30.8931 30.5769 31.9096 30.2707C32.9262 29.9646 33.8172 29.3394 34.4508 28.4875C35.0844 27.6356 35.4269 26.6024 35.4276 25.5407V25.3966C36.413 24.9278 37.2454 24.1896 37.8287 23.2674C38.4119 22.3451 38.722 21.2766 38.7232 20.1854ZM22.2453 28.8363C21.4322 28.8358 20.648 28.5348 20.0435 27.9911C19.4389 27.4474 19.0567 26.6994 18.9703 25.8909C19.236 25.9327 19.5047 25.9534 19.7736 25.9527H20.5975C20.816 25.9527 21.0256 25.8659 21.1801 25.7114C21.3346 25.5569 21.4214 25.3473 21.4214 25.1288C21.4214 24.9103 21.3346 24.7007 21.1801 24.5462C21.0256 24.3917 20.816 24.3049 20.5975 24.3049H19.7736C18.8028 24.3033 17.8637 23.9588 17.1221 23.3322C16.3805 22.7057 15.884 21.8374 15.7202 20.8805C15.5564 19.9236 15.7359 18.9395 16.2269 18.102C16.7179 17.2645 17.4889 16.6273 18.4039 16.3028C18.564 16.2439 18.7022 16.1372 18.7998 15.9973C18.8974 15.8573 18.9497 15.6908 18.9497 15.5201V14.0062C18.9497 13.1322 19.297 12.294 19.915 11.6759C20.533 11.0579 21.3713 10.7107 22.2453 10.7107C23.1194 10.7107 23.9576 11.0579 24.5756 11.6759C25.1937 12.294 25.5409 13.1322 25.5409 14.0062V21.8641C24.6389 21.0455 23.4634 20.5937 22.2453 20.5974C22.0268 20.5974 21.8172 20.6842 21.6627 20.8387C21.5082 20.9932 21.4214 21.2028 21.4214 21.4213C21.4214 21.6398 21.5082 21.8494 21.6627 22.0039C21.8172 22.1584 22.0268 22.2452 22.2453 22.2452C23.1194 22.2452 23.9576 22.5924 24.5756 23.2104C25.1937 23.8285 25.5409 24.6667 25.5409 25.5407C25.5409 26.4148 25.1937 27.253 24.5756 27.8711C23.9576 28.4891 23.1194 28.8363 22.2453 28.8363ZM32.9559 24.3049H32.132C31.9135 24.3049 31.704 24.3917 31.5495 24.5462C31.3949 24.7007 31.3081 24.9103 31.3081 25.1288C31.3081 25.3473 31.3949 25.5569 31.5495 25.7114C31.704 25.8659 31.9135 25.9527 32.132 25.9527H32.9559C33.2249 25.9534 33.4935 25.9327 33.7592 25.8909C33.6915 26.5243 33.4418 27.1244 33.0401 27.6188C32.6385 28.1132 32.1022 28.4805 31.4962 28.6765C30.8901 28.8724 30.2402 28.8886 29.6252 28.7229C29.0102 28.5573 28.4563 28.2169 28.0307 27.7431C27.605 27.2692 27.3258 26.6822 27.2268 26.053C27.1278 25.4238 27.2132 24.7793 27.4728 24.1977C27.7324 23.616 28.155 23.1221 28.6894 22.7755C29.2239 22.429 29.8473 22.2448 30.4842 22.2452C30.7028 22.2452 30.9123 22.1584 31.0668 22.0039C31.2213 21.8494 31.3081 21.6398 31.3081 21.4213C31.3081 21.2028 31.2213 20.9932 31.0668 20.8387C30.9123 20.6842 30.7028 20.5974 30.4842 20.5974C29.2662 20.5937 28.0907 21.0455 27.1887 21.8641V14.0062C27.1887 13.1322 27.5359 12.294 28.1539 11.6759C28.772 11.0579 29.6102 10.7107 30.4842 10.7107C31.3583 10.7107 32.1965 11.0579 32.8146 11.6759C33.4326 12.294 33.7798 13.1322 33.7798 14.0062V15.5201C33.7798 15.6908 33.8322 15.8573 33.9298 15.9973C34.0274 16.1372 34.1655 16.2439 34.3257 16.3028C35.2407 16.6273 36.0117 17.2645 36.5027 18.102C36.9937 18.9395 37.1731 19.9236 37.0093 20.8805C36.8455 21.8374 36.349 22.7057 35.6074 23.3322C34.8658 23.9588 33.9268 24.3033 32.9559 24.3049ZM19.3617 19.7735C19.1432 19.7735 18.9336 19.6867 18.7791 19.5322C18.6246 19.3777 18.5378 19.1681 18.5378 18.9496C18.5378 18.7311 18.6246 18.5215 18.7791 18.367C18.9336 18.2125 19.1432 18.1257 19.3617 18.1257C19.9071 18.123 20.4295 17.9051 20.8152 17.5194C21.2008 17.1337 21.4187 16.6114 21.4214 16.066V15.2421C21.4214 15.0236 21.5082 14.814 21.6627 14.6595C21.8172 14.505 22.0268 14.4182 22.2453 14.4182C22.4638 14.4182 22.6734 14.505 22.8279 14.6595C22.9824 14.814 23.0692 15.0236 23.0692 15.2421V16.066C23.0692 17.0493 22.6786 17.9923 21.9833 18.6876C21.288 19.3829 20.345 19.7735 19.3617 19.7735ZM34.1918 18.9496C34.1918 19.1681 34.105 19.3777 33.9505 19.5322C33.7959 19.6867 33.5864 19.7735 33.3679 19.7735C32.3846 19.7735 31.4416 19.3829 30.7463 18.6876C30.051 17.9923 29.6604 17.0493 29.6604 16.066V15.2421C29.6604 15.0236 29.7472 14.814 29.9017 14.6595C30.0562 14.505 30.2657 14.4182 30.4842 14.4182C30.7028 14.4182 30.9123 14.505 31.0668 14.6595C31.2213 14.814 31.3081 15.0236 31.3081 15.2421V16.066C31.3109 16.6114 31.5287 17.1337 31.9144 17.5194C32.3001 17.9051 32.8224 18.123 33.3679 18.1257C33.5864 18.1257 33.7959 18.2125 33.9505 18.367C34.105 18.5215 34.1918 18.7311 34.1918 18.9496Z" fill="#471515"/>
<path d="M47.757 26.2734H49.9294V20.2004H55.5389V18.4819H49.9294V13.9537H56.4175V12.2158H47.757V26.2734ZM57.4313 21.4266C57.4313 22.9586 57.8755 24.1976 58.7637 25.1438C59.652 26.0836 60.8267 26.5534 62.2878 26.5534C63.7553 26.5534 64.9333 26.0836 65.8215 25.1438C66.7098 24.1976 67.1539 22.9586 67.1539 21.4266V21.1177C67.1539 19.5922 66.7098 18.3596 65.8215 17.4198C64.9333 16.4736 63.7553 16.0005 62.2878 16.0005C60.8267 16.0005 59.652 16.4736 58.7637 17.4198C57.8755 18.3596 57.4313 19.5922 57.4313 21.1177V21.4266ZM59.5844 21.0694C59.5844 20.0717 59.8129 19.2543 60.2699 18.617C60.7333 17.9798 61.406 17.6612 62.2878 17.6612C63.1696 17.6612 63.839 17.9798 64.296 18.617C64.7595 19.2543 64.9912 20.0717 64.9912 21.0694V21.4749C64.9912 22.479 64.7627 23.2997 64.3057 23.9369C63.8487 24.5677 63.176 24.8831 62.2878 24.8831C61.3995 24.8831 60.7269 24.5677 60.2699 23.9369C59.8129 23.2997 59.5844 22.479 59.5844 21.4749V21.0694ZM68.6504 21.4266C68.6504 22.965 69.0785 24.2041 69.9345 25.1438C70.7906 26.0836 71.9492 26.5534 73.4103 26.5534C74.7878 26.5534 75.837 26.193 76.5579 25.4721C77.2852 24.7447 77.6489 23.908 77.6489 22.9618V22.8845H75.6117V22.9618C75.6052 23.4831 75.4282 23.9369 75.0807 24.3231C74.7331 24.7093 74.1763 24.9024 73.4103 24.9024C72.5221 24.9024 71.8655 24.5806 71.4407 23.9369C71.0159 23.2868 70.8035 22.4662 70.8035 21.4749V21.0694C70.8035 20.0717 71.0191 19.2543 71.4504 18.617C71.8816 17.9734 72.535 17.6515 73.4103 17.6515C74.1634 17.6515 74.717 17.8414 75.071 18.2212C75.425 18.5945 75.602 19.0483 75.602 19.5825V19.6694H77.6489V19.5632C77.6296 18.617 77.2627 17.7867 76.5482 17.0722C75.8337 16.3578 74.7878 16.0005 73.4103 16.0005C71.9492 16.0005 70.7906 16.4704 69.9345 17.4102C69.0785 18.3435 68.6504 19.5793 68.6504 21.1177V21.4266ZM79.464 22.6432C79.464 24.0206 79.7698 25.0022 80.3812 25.5879C80.9927 26.1737 81.7973 26.4665 82.795 26.4665C83.4387 26.4665 84.0212 26.3378 84.5426 26.0803C85.0639 25.8229 85.4952 25.4689 85.8363 25.0183H85.8846L85.9522 26.2734H87.9025V16.2805H85.7977V23.2225C85.5789 23.673 85.2667 24.0431 84.8612 24.3328C84.4621 24.6224 84.0019 24.7673 83.4805 24.7673C82.8755 24.7673 82.4056 24.6096 82.0709 24.2942C81.7426 23.9788 81.5785 23.4349 81.5785 22.6625V16.2805H79.464V22.6432ZM89.9493 23.2418V23.3287C89.9493 24.3263 90.313 25.1148 91.0404 25.6941C91.7677 26.267 92.8137 26.5534 94.1782 26.5534C95.5428 26.5534 96.5727 26.2702 97.2678 25.7038C97.963 25.1309 98.3106 24.3746 98.3106 23.4349C98.3106 22.5659 98.0241 21.8933 97.4513 21.417C96.8784 20.9407 96.0352 20.577 94.9217 20.326C93.8532 20.0814 93.1451 19.8561 92.7976 19.6501C92.45 19.4441 92.2762 19.1609 92.2762 18.8005C92.2762 18.44 92.4242 18.1471 92.7203 17.9219C93.0164 17.6966 93.4799 17.5839 94.1106 17.5839C94.7543 17.5839 95.2306 17.7127 95.5396 17.9701C95.8485 18.2212 96.003 18.5752 96.003 19.0322V19.1577H98.0692V19.0708C98.0692 18.1182 97.7087 17.3683 96.9878 16.8212C96.2669 16.2741 95.3111 16.0005 94.1203 16.0005C92.9295 16.0005 91.9801 16.2709 91.2721 16.8115C90.564 17.3522 90.21 18.057 90.21 18.926C90.21 19.7434 90.5061 20.3871 91.0983 20.857C91.6969 21.3269 92.553 21.6905 93.6665 21.948C94.735 22.1926 95.4302 22.4211 95.752 22.6335C96.0738 22.8459 96.2347 23.1613 96.2347 23.5797C96.2347 24.0045 96.0513 24.3424 95.6844 24.5935C95.324 24.8445 94.8187 24.97 94.1686 24.97C93.5185 24.97 92.9971 24.8381 92.6045 24.5742C92.2183 24.3103 92.0252 23.9015 92.0252 23.348V23.2514L89.9493 23.2418Z" fill="#471515"/>
<rect x="0.823893" y="0.823893" width="110.673" height="37.8991" rx="18.9495" stroke="#471515" stroke-width="1.64779"/>
</svg>
