<svg width="142" height="40" viewBox="0 0 142 40" fill="none" xmlns="http://www.w3.org/2000/svg">
<rect x="0.823893" y="0.823893" width="140.352" height="38.3522" rx="19.1761" fill="#7BFF4C" fill-opacity="0.15"/>
<path d="M38.7229 20.4119C38.723 19.3204 38.4134 18.2514 37.83 17.3289C37.2466 16.4065 36.4135 15.6685 35.4274 15.2008V14.2327C35.4266 13.171 35.0841 12.1378 34.4506 11.2859C33.817 10.4341 32.926 9.80881 31.9094 9.50269C30.8928 9.19656 29.8047 9.22584 28.8061 9.5862C27.8075 9.94655 26.9514 10.6188 26.3645 11.5035C25.7777 10.6188 24.9216 9.94655 23.923 9.5862C22.9243 9.22584 21.8362 9.19656 20.8197 9.50269C19.8031 9.80881 18.9121 10.4341 18.2785 11.2859C17.6449 12.1378 17.3024 13.171 17.3017 14.2327V15.2008C16.3155 15.6684 15.4821 16.4063 14.8986 17.3288C14.3151 18.2513 14.0054 19.3204 14.0054 20.4119C14.0054 21.5034 14.3151 22.5725 14.8986 23.495C15.4821 24.4174 16.3155 25.1554 17.3017 25.623V25.7672C17.3024 26.8288 17.6449 27.8621 18.2785 28.7139C18.9121 29.5658 19.8031 30.1911 20.8197 30.4972C21.8362 30.8033 22.9243 30.774 23.923 30.4137C24.9216 30.0533 25.7777 29.381 26.3645 28.4963C26.9514 29.381 27.8075 30.0533 28.8061 30.4137C29.8047 30.774 30.8928 30.8033 31.9094 30.4972C32.926 30.1911 33.817 29.5658 34.4506 28.7139C35.0841 27.8621 35.4266 26.8288 35.4274 25.7672V25.623C36.4127 25.1543 37.2452 24.416 37.8284 23.4938C38.4116 22.5716 38.7218 21.5031 38.7229 20.4119V20.4119ZM22.2451 29.0628C21.432 29.0623 20.6478 28.7612 20.0432 28.2175C19.4387 27.6738 19.0565 26.9258 18.9701 26.1173C19.2358 26.1592 19.5044 26.1798 19.7734 26.1791H20.5973C20.8158 26.1791 21.0254 26.0923 21.1799 25.9378C21.3344 25.7833 21.4212 25.5738 21.4212 25.3552C21.4212 25.1367 21.3344 24.9272 21.1799 24.7727C21.0254 24.6182 20.8158 24.5313 20.5973 24.5313H19.7734C18.8026 24.5297 17.8635 24.1852 17.1219 23.5587C16.3803 22.9322 15.8838 22.0638 15.72 21.1069C15.5562 20.15 15.7356 19.166 16.2266 18.3285C16.7176 17.4909 17.4887 16.8537 18.4037 16.5293C18.5638 16.4703 18.702 16.3636 18.7996 16.2237C18.8972 16.0837 18.9495 15.9172 18.9495 15.7466V14.2327C18.9495 13.3586 19.2967 12.5204 19.9148 11.9024C20.5328 11.2843 21.371 10.9371 22.2451 10.9371C23.1191 10.9371 23.9574 11.2843 24.5754 11.9024C25.1934 12.5204 25.5406 13.3586 25.5406 14.2327V22.0906C24.6386 21.2719 23.4632 20.8201 22.2451 20.8238C22.0266 20.8238 21.817 20.9106 21.6625 21.0651C21.508 21.2197 21.4212 21.4292 21.4212 21.6477C21.4212 21.8662 21.508 22.0758 21.6625 22.2303C21.817 22.3848 22.0266 22.4716 22.2451 22.4716C23.1191 22.4716 23.9574 22.8188 24.5754 23.4369C25.1934 24.0549 25.5406 24.8931 25.5406 25.7672C25.5406 26.6412 25.1934 27.4795 24.5754 28.0975C23.9574 28.7155 23.1191 29.0628 22.2451 29.0628ZM32.9557 24.5313H32.1318C31.9133 24.5313 31.7037 24.6182 31.5492 24.7727C31.3947 24.9272 31.3079 25.1367 31.3079 25.3552C31.3079 25.5738 31.3947 25.7833 31.5492 25.9378C31.7037 26.0923 31.9133 26.1791 32.1318 26.1791H32.9557C33.2247 26.1798 33.4933 26.1592 33.759 26.1173C33.6913 26.7507 33.4415 27.3509 33.0399 27.8452C32.6383 28.3396 32.102 28.707 31.4959 28.9029C30.8899 29.0989 30.24 29.115 29.625 28.9494C29.0099 28.7837 28.4561 28.4434 28.0304 27.9695C27.6048 27.4957 27.3255 26.9086 27.2265 26.2794C27.1275 25.6502 27.213 25.0058 27.4726 24.4241C27.7322 23.8425 28.1547 23.3485 28.6892 23.002C29.2236 22.6555 29.8471 22.4712 30.484 22.4716C30.7025 22.4716 30.9121 22.3848 31.0666 22.2303C31.2211 22.0758 31.3079 21.8662 31.3079 21.6477C31.3079 21.4292 31.2211 21.2197 31.0666 21.0651C30.9121 20.9106 30.7025 20.8238 30.484 20.8238C29.2659 20.8201 28.0904 21.2719 27.1884 22.0906V14.2327C27.1884 13.3586 27.5356 12.5204 28.1537 11.9024C28.7717 11.2843 29.61 10.9371 30.484 10.9371C31.358 10.9371 32.1963 11.2843 32.8143 11.9024C33.4324 12.5204 33.7796 13.3586 33.7796 14.2327V15.7466C33.7796 15.9172 33.8319 16.0837 33.9295 16.2237C34.0271 16.3636 34.1653 16.4703 34.3254 16.5293C35.2404 16.8537 36.0114 17.4909 36.5024 18.3285C36.9934 19.166 37.1729 20.15 37.0091 21.1069C36.8453 22.0638 36.3488 22.9322 35.6072 23.5587C34.8656 24.1852 33.9265 24.5297 32.9557 24.5313V24.5313ZM19.3614 19.9999C19.1429 19.9999 18.9334 19.9131 18.7789 19.7586C18.6244 19.6041 18.5376 19.3946 18.5376 19.176C18.5376 18.9575 18.6244 18.748 18.7789 18.5935C18.9334 18.439 19.1429 18.3522 19.3614 18.3522C19.9069 18.3494 20.4292 18.1316 20.8149 17.7459C21.2006 17.3602 21.4185 16.8379 21.4212 16.2924V15.4685C21.4212 15.25 21.508 15.0405 21.6625 14.8859C21.817 14.7314 22.0266 14.6446 22.2451 14.6446C22.4636 14.6446 22.6731 14.7314 22.8277 14.8859C22.9822 15.0405 23.069 15.25 23.069 15.4685V16.2924C23.069 17.2757 22.6784 18.2187 21.9831 18.914C21.2878 19.6093 20.3447 19.9999 19.3614 19.9999V19.9999ZM34.1915 19.176C34.1915 19.3946 34.1047 19.6041 33.9502 19.7586C33.7957 19.9131 33.5861 19.9999 33.3676 19.9999C32.3843 19.9999 31.4413 19.6093 30.746 18.914C30.0507 18.2187 29.6601 17.2757 29.6601 16.2924V15.4685C29.6601 15.25 29.7469 15.0405 29.9014 14.8859C30.0559 14.7314 30.2655 14.6446 30.484 14.6446C30.7025 14.6446 30.9121 14.7314 31.0666 14.8859C31.2211 15.0405 31.3079 15.25 31.3079 15.4685V16.2924C31.3106 16.8379 31.5285 17.3602 31.9142 17.7459C32.2999 18.1316 32.8222 18.3494 33.3676 18.3522C33.5861 18.3522 33.7957 18.439 33.9502 18.5935C34.1047 18.748 34.1915 18.9575 34.1915 19.176Z" fill="#471515"/>
<path d="M47.757 26.5H49.9294V20.427H55.5389V18.7084H49.9294V14.1802H56.4175V12.4423H47.757V26.5ZM57.4313 21.6532C57.4313 23.1851 57.8755 24.4242 58.7637 25.3704C59.652 26.3101 60.8267 26.78 62.2878 26.78C63.7553 26.78 64.9333 26.3101 65.8215 25.3704C66.7098 24.4242 67.1539 23.1851 67.1539 21.6532V21.3442C67.1539 19.8187 66.7098 18.5861 65.8215 17.6464C64.9333 16.7002 63.7553 16.2271 62.2878 16.2271C60.8267 16.2271 59.652 16.7002 58.7637 17.6464C57.8755 18.5861 57.4313 19.8187 57.4313 21.3442V21.6532ZM59.5844 21.296C59.5844 20.2983 59.8129 19.4808 60.2699 18.8436C60.7333 18.2064 61.406 17.8877 62.2878 17.8877C63.1696 17.8877 63.839 18.2064 64.296 18.8436C64.7595 19.4808 64.9912 20.2983 64.9912 21.296V21.7015C64.9912 22.7056 64.7627 23.5263 64.3057 24.1635C63.8487 24.7943 63.176 25.1097 62.2878 25.1097C61.3995 25.1097 60.7269 24.7943 60.2699 24.1635C59.8129 23.5263 59.5844 22.7056 59.5844 21.7015V21.296ZM68.6504 21.6532C68.6504 23.1916 69.0785 24.4306 69.9345 25.3704C70.7906 26.3101 71.9492 26.78 73.4103 26.78C74.7878 26.78 75.837 26.4195 76.5579 25.6986C77.2852 24.9713 77.6489 24.1345 77.6489 23.1883V23.1111H75.6117V23.1883C75.6052 23.7097 75.4282 24.1635 75.0807 24.5497C74.7331 24.9359 74.1763 25.129 73.4103 25.129C72.5221 25.129 71.8655 24.8072 71.4407 24.1635C71.0159 23.5134 70.8035 22.6927 70.8035 21.7015V21.296C70.8035 20.2983 71.0191 19.4808 71.4504 18.8436C71.8816 18.1999 72.535 17.8781 73.4103 17.8781C74.1634 17.8781 74.717 18.068 75.071 18.4477C75.425 18.8211 75.602 19.2748 75.602 19.8091V19.896H77.6489V19.7898C77.6296 18.8436 77.2627 18.0133 76.5482 17.2988C75.8337 16.5843 74.7878 16.2271 73.4103 16.2271C71.9492 16.2271 70.7906 16.697 69.9345 17.6367C69.0785 18.57 68.6504 19.8059 68.6504 21.3442V21.6532ZM79.464 22.8697C79.464 24.2472 79.7698 25.2288 80.3812 25.8145C80.9927 26.4002 81.7973 26.6931 82.795 26.6931C83.4387 26.6931 84.0212 26.5644 84.5426 26.3069C85.0639 26.0494 85.4952 25.6954 85.8363 25.2449H85.8846L85.9522 26.5H87.9025V16.5071H85.7977V23.449C85.5789 23.8996 85.2667 24.2697 84.8612 24.5593C84.4621 24.849 84.0019 24.9938 83.4805 24.9938C82.8755 24.9938 82.4056 24.8361 82.0709 24.5207C81.7426 24.2053 81.5785 23.6614 81.5785 22.889V16.5071H79.464V22.8697ZM89.9493 23.4683V23.5552C89.9493 24.5529 90.313 25.3414 91.0404 25.9207C91.7677 26.4936 92.8137 26.78 94.1782 26.78C95.5428 26.78 96.5727 26.4968 97.2678 25.9304C97.963 25.3575 98.3106 24.6012 98.3106 23.6614C98.3106 22.7925 98.0241 22.1199 97.4513 21.6435C96.8784 21.1672 96.0352 20.8036 94.9217 20.5525C93.8532 20.3079 93.1451 20.0826 92.7976 19.8767C92.45 19.6707 92.2762 19.3875 92.2762 19.027C92.2762 18.6666 92.4242 18.3737 92.7203 18.1484C93.0164 17.9231 93.4799 17.8105 94.1106 17.8105C94.7543 17.8105 95.2306 17.9392 95.5396 18.1967C95.8485 18.4477 96.003 18.8018 96.003 19.2588V19.3843H98.0692V19.2974C98.0692 18.3447 97.7087 17.5949 96.9878 17.0478C96.2669 16.5006 95.3111 16.2271 94.1203 16.2271C92.9295 16.2271 91.9801 16.4974 91.2721 17.0381C90.564 17.5788 90.21 18.2836 90.21 19.1525C90.21 19.97 90.5061 20.6137 91.0983 21.0835C91.6969 21.5534 92.553 21.9171 93.6665 22.1746C94.735 22.4192 95.4302 22.6477 95.752 22.8601C96.0738 23.0725 96.2347 23.3879 96.2347 23.8063C96.2347 24.2311 96.0513 24.569 95.6844 24.82C95.324 25.0711 94.8187 25.1966 94.1686 25.1966C93.5185 25.1966 92.9971 25.0646 92.6045 24.8007C92.2183 24.5368 92.0252 24.1281 92.0252 23.5745V23.478L89.9493 23.4683Z" fill="#471515"/>
<rect x="0.823893" y="0.823893" width="140.352" height="38.3522" rx="19.1761" stroke="#471515" stroke-width="1.64779"/>
</svg>
