<svg width="190" height="55" viewBox="0 0 190 55" fill="none" xmlns="http://www.w3.org/2000/svg">
<rect x="1" y="1.13208" width="188" height="52.4825" rx="26.2413" fill="#4CACFF" fill-opacity="0.15"/>
<path d="M26 18.3734V14.3734C26 14.1082 26.1054 13.8538 26.2929 13.6663C26.4804 13.4788 26.7348 13.3734 27 13.3734C27.2652 13.3734 27.5196 13.4788 27.7071 13.6663C27.8946 13.8538 28 14.1082 28 14.3734V18.3734C28 18.6386 27.8946 18.893 27.7071 19.0805C27.5196 19.2681 27.2652 19.3734 27 19.3734C26.7348 19.3734 26.4804 19.2681 26.2929 19.0805C26.1054 18.893 26 18.6386 26 18.3734ZM31 19.3734C31.2652 19.3734 31.5196 19.2681 31.7071 19.0805C31.8946 18.893 32 18.6386 32 18.3734V14.3734C32 14.1082 31.8946 13.8538 31.7071 13.6663C31.5196 13.4788 31.2652 13.3734 31 13.3734C30.7348 13.3734 30.4804 13.4788 30.2929 13.6663C30.1054 13.8538 30 14.1082 30 14.3734V18.3734C30 18.6386 30.1054 18.893 30.2929 19.0805C30.4804 19.2681 30.7348 19.3734 31 19.3734ZM35 19.3734C35.2652 19.3734 35.5196 19.2681 35.7071 19.0805C35.8946 18.893 36 18.6386 36 18.3734V14.3734C36 14.1082 35.8946 13.8538 35.7071 13.6663C35.5196 13.4788 35.2652 13.3734 35 13.3734C34.7348 13.3734 34.4804 13.4788 34.2929 13.6663C34.1054 13.8538 34 14.1082 34 14.3734V18.3734C34 18.6386 34.1054 18.893 34.2929 19.0805C34.4804 19.2681 34.7348 19.3734 35 19.3734ZM47 26.3734V27.3734C46.9993 28.6449 46.5142 29.8684 45.6434 30.7949C44.7726 31.7215 43.5815 32.2814 42.3125 32.3609C41.6237 34.2874 40.4634 36.0106 38.9375 37.3734H42C42.2652 37.3734 42.5196 37.4788 42.7071 37.6663C42.8946 37.8538 43 38.1082 43 38.3734C43 38.6386 42.8946 38.893 42.7071 39.0805C42.5196 39.2681 42.2652 39.3734 42 39.3734H20C19.7348 39.3734 19.4804 39.2681 19.2929 39.0805C19.1054 38.893 19 38.6386 19 38.3734C19 38.1082 19.1054 37.8538 19.2929 37.6663C19.4804 37.4788 19.7348 37.3734 20 37.3734H23.0625C21.7882 36.2452 20.7673 34.8599 20.067 33.3086C19.3668 31.7574 19.0032 30.0754 19 28.3734V22.3734C19 22.1082 19.1054 21.8538 19.2929 21.6663C19.4804 21.4788 19.7348 21.3734 20 21.3734H42C43.3261 21.3734 44.5979 21.9002 45.5355 22.8379C46.4732 23.7756 47 25.0473 47 26.3734ZM41 23.3734H21V28.3734C21.0041 30.2507 21.5345 32.0891 22.531 33.68C23.5275 35.2709 24.9502 36.5505 26.6375 37.3734H35.3625C36.6229 36.7575 37.7402 35.8841 38.6423 34.8098C39.5445 33.7354 40.2114 32.4839 40.6 31.1359C40.6139 31.1131 40.6225 31.0875 40.625 31.0609C40.8763 30.1873 41.0025 29.2825 41 28.3734V23.3734ZM45 26.3734C44.9993 25.7536 44.8066 25.1492 44.4485 24.6434C44.0904 24.1375 43.5844 23.755 43 23.5484V28.3734C43.0008 29.0014 42.9506 29.6285 42.85 30.2484C43.4705 30.0651 44.015 29.6861 44.4025 29.168C44.79 28.6499 44.9996 28.0204 45 27.3734V26.3734Z" fill="#153047"/>
<path d="M57.8945 35.3734H68.1133V33.2875H60.4844V18.3109H57.8945V35.3734ZM69.4961 29.5726C69.4961 31.4008 70.0273 32.8812 71.0898 34.014C72.1523 35.139 73.5625 35.7015 75.3203 35.7015C77.0781 35.7015 78.4883 35.139 79.5508 34.014C80.6133 32.8812 81.1445 31.4008 81.1445 29.5726V29.1976C81.1445 27.3617 80.6133 25.8812 79.5508 24.7562C78.4883 23.6312 77.0781 23.0687 75.3203 23.0687C73.5625 23.0687 72.1523 23.6312 71.0898 24.7562C70.0273 25.8812 69.4961 27.3617 69.4961 29.1976V29.5726ZM72.0625 29.139C72.0625 27.9359 72.3398 26.9554 72.8945 26.1976C73.4492 25.432 74.2578 25.0492 75.3203 25.0492C76.3828 25.0492 77.1914 25.432 77.7461 26.1976C78.3008 26.9554 78.5781 27.9359 78.5781 29.139V29.6195C78.5781 30.8226 78.3008 31.807 77.7461 32.5726C77.1992 33.3383 76.3906 33.7211 75.3203 33.7211C74.2578 33.7211 73.4492 33.3383 72.8945 32.5726C72.3398 31.807 72.0625 30.8265 72.0625 29.6312V29.139ZM83.582 35.3734H86.1016V27.0648C86.3672 26.5023 86.7422 26.0492 87.2266 25.7054C87.7188 25.3617 88.2734 25.1898 88.8906 25.1898C89.6172 25.1898 90.1797 25.3812 90.5781 25.764C90.9766 26.1469 91.1758 26.7914 91.1758 27.6976V35.3734H93.6953V27.6625C93.6953 26.0297 93.3281 24.8695 92.5938 24.182C91.8672 23.4945 90.9023 23.1508 89.6992 23.1508C88.918 23.1508 88.2109 23.3109 87.5781 23.6312C86.9453 23.9437 86.4375 24.3734 86.0547 24.9203H85.9961L85.9258 23.3969H83.582V35.3734ZM96.5664 38.8304C97.1445 39.307 97.8555 39.7015 98.6992 40.014C99.5508 40.3265 100.48 40.4828 101.488 40.4828C103.145 40.4828 104.488 40.0023 105.52 39.0414C106.559 38.0883 107.078 36.7094 107.078 34.9047V23.3969H104.723L104.652 24.9203H104.594C104.297 24.4203 103.832 24.0023 103.199 23.6664C102.566 23.3304 101.848 23.1625 101.043 23.1625C99.5117 23.1625 98.293 23.7289 97.3867 24.8617C96.4805 25.9867 96.0273 27.432 96.0273 29.1976V29.5726C96.0273 31.3383 96.4805 32.7836 97.3867 33.9086C98.3008 35.0258 99.5156 35.5844 101.031 35.5844C101.867 35.5844 102.578 35.4359 103.164 35.139C103.758 34.8422 104.227 34.4476 104.57 33.9554V34.9867C104.57 36.1429 104.273 37.0101 103.68 37.5883C103.094 38.1664 102.32 38.4554 101.359 38.4554C100.586 38.4554 99.8828 38.3109 99.25 38.0219C98.6172 37.7328 98.1367 37.4203 97.8086 37.0844L96.5664 38.8304ZM98.5938 29.6078V29.1625C98.5938 28.0062 98.8438 27.0492 99.3438 26.2914C99.8438 25.5258 100.621 25.1429 101.676 25.1429C102.387 25.1429 102.988 25.3383 103.48 25.7289C103.98 26.1117 104.34 26.5648 104.559 27.0883V31.682C104.348 32.182 103.992 32.6312 103.492 33.0297C102.992 33.4203 102.391 33.6156 101.688 33.6156C100.625 33.6156 99.8438 33.2367 99.3438 32.4789C98.8438 31.7211 98.5938 30.764 98.5938 29.6078ZM116.02 35.3734H122.09C123.785 35.3734 125.141 34.9476 126.156 34.0961C127.172 33.2445 127.68 32.0492 127.68 30.5101C127.68 29.3929 127.414 28.4906 126.883 27.8031C126.359 27.1156 125.684 26.6547 124.855 26.4203V26.3734C125.527 26.139 126.086 25.7211 126.531 25.1195C126.984 24.5101 127.211 23.7289 127.211 22.7758C127.211 21.2523 126.727 20.1273 125.758 19.4008C124.797 18.6742 123.461 18.3109 121.75 18.3109H116.02V35.3734ZM118.574 33.3812V27.4633H121.996C123.059 27.4633 123.84 27.7328 124.34 28.2719C124.848 28.8031 125.102 29.5219 125.102 30.4281C125.102 31.3344 124.848 32.0531 124.34 32.5844C123.84 33.1156 123.059 33.3812 121.996 33.3812H118.574ZM118.574 25.5648V20.3148H121.656C122.719 20.3226 123.484 20.5492 123.953 20.9945C124.422 21.432 124.656 22.0687 124.656 22.9047C124.656 23.7406 124.422 24.3929 123.953 24.8617C123.484 25.3304 122.719 25.5648 121.656 25.5648H118.574ZM130.27 35.3734H132.801V27.2054C133.035 26.6664 133.391 26.2211 133.867 25.8695C134.344 25.5179 134.895 25.3422 135.52 25.3422C135.723 25.3422 135.91 25.3539 136.082 25.3773C136.254 25.3929 136.414 25.4164 136.562 25.4476V23.2328C136.484 23.2015 136.352 23.1703 136.164 23.139C135.984 23.1 135.809 23.0804 135.637 23.0804C134.98 23.0804 134.406 23.2601 133.914 23.6195C133.43 23.9789 133.043 24.4047 132.754 24.8969H132.695L132.625 23.3969H130.27V35.3734ZM137.465 29.5726C137.465 31.4008 137.977 32.8812 139 34.014C140.023 35.139 141.473 35.7015 143.348 35.7015C144.551 35.7015 145.566 35.4594 146.395 34.975C147.223 34.4828 147.82 33.9164 148.188 33.2758L146.453 32.0922C146.133 32.5453 145.711 32.9359 145.188 33.264C144.672 33.5844 144.055 33.7445 143.336 33.7445C142.219 33.7445 141.383 33.3578 140.828 32.5844C140.273 31.8031 139.996 30.8148 139.996 29.6195V29.1156C139.996 27.9203 140.254 26.9398 140.77 26.1742C141.293 25.4008 142.07 25.014 143.102 25.014C144 25.014 144.676 25.3031 145.129 25.8812C145.582 26.4515 145.809 27.1351 145.809 27.932V28.1664H139.035V29.9359H148.316V28.9984C148.316 27.1625 147.859 25.7172 146.945 24.6625C146.031 23.6 144.738 23.0687 143.066 23.0687C141.395 23.0687 140.043 23.6351 139.012 24.7679C137.98 25.8929 137.465 27.3695 137.465 29.1976V29.5726ZM150.004 31.8695C150.004 33.0883 150.395 34.014 151.176 34.6469C151.957 35.2719 152.93 35.5844 154.094 35.5844C155.094 35.5844 155.914 35.3969 156.555 35.0219C157.203 34.639 157.664 34.2054 157.938 33.7211C157.961 34.0258 158.012 34.3304 158.09 34.6351C158.176 34.932 158.273 35.1781 158.383 35.3734H160.832V35.1859C160.684 34.8578 160.57 34.4711 160.492 34.0258C160.414 33.5726 160.375 33.0961 160.375 32.5961V27.1586C160.375 25.7679 159.961 24.7406 159.133 24.0765C158.305 23.4047 157.141 23.0687 155.641 23.0687C154.133 23.0687 152.93 23.4164 152.031 24.1117C151.141 24.807 150.695 25.6508 150.695 26.6429V26.807H153.168V26.6664C153.168 26.1742 153.355 25.7601 153.73 25.4242C154.105 25.0883 154.711 24.9203 155.547 24.9203C156.391 24.9203 156.984 25.1234 157.328 25.5297C157.68 25.9281 157.855 26.4633 157.855 27.1351V27.9789H155.207C153.684 27.9789 152.434 28.3187 151.457 28.9984C150.488 29.6781 150.004 30.6351 150.004 31.8695ZM152.523 31.7054C152.523 31.057 152.777 30.5492 153.285 30.182C153.793 29.8148 154.559 29.6312 155.582 29.6312H157.855V31.1547C157.855 31.8031 157.543 32.3969 156.918 32.9359C156.301 33.475 155.594 33.7445 154.797 33.7445C154.023 33.7445 153.449 33.5648 153.074 33.2054C152.707 32.8461 152.523 32.3461 152.523 31.7054ZM163.504 35.3734H166.023V31.4125L173.582 23.3969H170.734L166.023 28.4828V17.5961H163.504V35.3734ZM171.18 35.3734H174.133L168.285 27.5453L166.703 29.3031L171.18 35.3734Z" fill="#153047"/>
<rect x="1" y="1.13208" width="188" height="52.4825" rx="26.2413" stroke="#153047" stroke-width="2"/>
</svg>
