<svg width="206" height="334" viewBox="0 0 206 334" fill="none" xmlns="http://www.w3.org/2000/svg">
<path d="M102.395 319.027C158.665 319.291 204.488 275.236 204.744 220.627C205 166.018 159.592 121.535 103.322 121.271C47.0523 121.007 1.22896 165.063 0.972909 219.672C0.716863 274.28 46.125 318.764 102.395 319.027Z" fill="#EEE7E7" stroke="black" stroke-width="1.04839"/>
<path d="M71.0287 303.773C86.6893 306.032 101.531 310.853 117.444 308.187C121.824 307.454 134.297 301.927 138.237 304.088C141.348 305.795 139.274 313.375 140.33 315.989C140.477 316.351 147.57 321.813 146.93 321.966C146.187 322.144 144.268 322.449 143.699 321.951C139.533 318.301 129.478 319.276 123.949 319.76C104.241 321.484 82.9171 319.567 63.306 319.475" fill="black"/>
<path d="M71.0287 303.773C86.6893 306.032 101.531 310.853 117.444 308.187C121.824 307.454 134.297 301.927 138.237 304.088C141.348 305.795 139.274 313.375 140.33 315.989C140.477 316.351 147.57 321.813 146.93 321.966C146.187 322.144 144.268 322.449 143.699 321.951C139.533 318.301 129.478 319.276 123.949 319.76C104.241 321.484 82.9171 319.567 63.306 319.475" stroke="black" stroke-width="0.874"/>
<path d="M39.8536 175.597C58.0849 175.683 78.1722 167.028 96.6665 170.127C118.157 173.728 140.868 180.868 162.206 182.863C166.165 183.233 176.213 173.513 180.341 170.519C187.055 165.651 190.424 179.226 191.766 176.309C192.891 173.863 186.845 163.209 185.834 161.505C172.703 139.389 160.508 134.748 137.926 140.683C94.6917 152.046 61.4576 127.058 35.9558 144.969C27.6348 150.813 11.6073 164.736 10.9608 182.154" fill="black"/>
<path d="M39.8536 175.597C58.0849 175.683 78.1722 167.028 96.6665 170.127C118.157 173.728 140.868 180.868 162.206 182.863C166.165 183.233 176.213 173.513 180.341 170.519C187.055 165.651 190.424 179.226 191.766 176.309C192.891 173.863 186.845 163.209 185.834 161.505C172.703 139.389 160.508 134.748 137.926 140.683C94.6917 152.046 61.4576 127.058 35.9558 144.969C27.6348 150.813 11.6073 164.736 10.9608 182.154" stroke="black" stroke-width="0.874"/>
<path d="M184.964 90.7691C184.811 123.563 148.933 149.979 104.829 149.773C60.7246 149.566 25.0959 122.814 25.2497 90.0203C25.4034 57.2262 61.3581 14.4587 105.462 14.6654C149.566 14.8722 185.118 57.975 184.964 90.7691Z" fill="#EEE7E7" stroke="black"/>
<path d="M75.1376 33.4991C44.5986 33.3559 57.3731 59.6956 44.4754 59.6351C31.5777 59.5746 21.1774 47.76 21.2454 33.2464C21.3135 18.7329 31.8242 7.01631 44.7219 7.07678C57.6195 7.13726 75.2056 18.9856 75.1376 33.4991Z" fill="#090000"/>
<path d="M183.856 26.9403C183.789 41.3466 184.761 57.0433 168.343 56.9663C168.484 26.8682 129.91 41.094 129.978 26.6877C130.045 12.2814 137.836 0.638931 154.253 0.715907C170.67 0.792884 183.924 12.534 183.856 26.9403Z" fill="black"/>
<path d="M95.5796 79.8112C95.542 87.8186 89.0773 94.2802 81.1404 94.243C72.1201 102.356 60.4782 94.9034 60.5157 86.8962C60.5532 78.8888 73.3393 65.2077 81.2763 65.2449C89.2133 65.2821 95.6171 71.8036 95.5796 79.8112Z" fill="black"/>
<path d="M82.5301 85.1871C84.7624 85.1976 86.5796 83.5832 86.589 81.5813C86.5984 79.5794 84.7964 77.9481 82.5641 77.9377C80.3318 77.9272 78.5146 79.5415 78.5052 81.5434C78.4958 83.5453 80.2978 85.1766 82.5301 85.1871Z" fill="#D9D9D9"/>
<path d="M147.679 79.1492C164.648 100.072 141.177 93.618 133.24 93.5808C125.303 93.5436 118.9 87.0224 118.937 79.0145C118.975 71.007 125.439 64.5458 133.376 64.583C141.313 64.6202 147.717 71.1418 147.679 79.1492Z" fill="black"/>
<path d="M131.94 83.6065C134.172 83.617 135.99 82.0026 135.999 80.0008C136.008 77.9989 134.206 76.3676 131.974 76.3571C129.742 76.3466 127.925 77.961 127.915 79.9629C127.906 81.9647 129.708 83.5961 131.94 83.6065Z" fill="#D9D9D9"/>
<path d="M61.2821 114.992C70.7073 115.037 78.3812 107.972 78.4223 99.2142C78.4633 90.456 70.856 83.3203 61.4308 83.2761C52.0056 83.2319 44.3317 90.296 44.2906 99.0542C44.2496 107.812 51.8569 114.948 61.2821 114.992Z" fill="#D22929"/>
<path d="M153.788 117.238C163.214 117.283 170.888 110.219 170.929 101.46C170.97 92.7021 163.362 85.5663 153.937 85.5222C144.512 85.478 136.838 92.5421 136.797 101.3C136.756 110.059 144.363 117.194 153.788 117.238Z" fill="#D22929"/>
<path d="M106.213 110.671C111.174 110.695 115.206 108.482 115.219 105.73C115.232 102.977 111.221 100.727 106.26 100.703C101.299 100.68 97.2676 102.893 97.2547 105.645C97.2418 108.398 101.253 110.648 106.213 110.671Z" fill="black"/>
<path d="M80.9958 125.052C99.6976 135.335 131.295 125.288 131.295 125.288" stroke="black"/>
<path d="M30.0938 269.503C45.8438 269.576 58.7215 246.203 58.8571 217.297C58.9926 188.392 46.3346 164.899 30.5846 164.825C14.8346 164.751 1.95678 188.124 1.82125 217.03C1.68571 245.936 14.3437 269.429 30.0938 269.503Z" fill="black" stroke="black"/>
<path d="M173.744 266.129C189.494 266.203 202.372 242.83 202.507 213.924C202.643 185.018 189.985 161.525 174.235 161.451C158.485 161.377 145.607 184.75 145.471 213.656C145.336 242.562 157.994 266.055 173.744 266.129Z" fill="black"/>
<path d="M37.5723 332.499C58.3229 332.597 75.2149 317.675 75.3017 299.172C75.3884 280.668 58.6371 265.589 37.8865 265.492C17.1359 265.395 0.243877 280.316 0.157118 298.819C0.0703595 317.323 16.8217 332.402 37.5723 332.499Z" fill="black"/>
<path d="M32.0743 289.445C35.2222 289.46 37.7883 286.449 37.8058 282.72C37.8232 278.991 35.2855 275.956 32.1376 275.941C28.9896 275.926 26.4236 278.937 26.4061 282.666C26.3886 286.396 28.9263 289.431 32.0743 289.445Z" fill="#EEE7E7"/>
<path d="M37.6297 320.314C47.4079 320.359 55.362 314.558 55.3958 307.357C55.4295 300.155 47.5302 294.28 37.752 294.234C27.9739 294.188 20.0197 299.989 19.986 307.191C19.9522 314.392 27.8516 320.268 37.6297 320.314Z" fill="#EEE7E7"/>
<path d="M168.056 333.111C187.27 333.201 202.916 318.274 203.003 299.77C203.09 281.267 187.584 266.194 168.37 266.104C149.156 266.013 133.509 280.941 133.422 299.444C133.336 317.948 148.842 333.021 168.056 333.111Z" fill="black"/>
<path d="M168.116 320.333C177.17 320.375 184.537 314.571 184.571 307.37C184.605 300.168 177.292 294.296 168.238 294.253C159.184 294.211 151.817 300.014 151.783 307.216C151.749 314.418 159.062 320.29 168.116 320.333Z" fill="#EEE7E7"/>
<path d="M168.269 287.659C171.184 287.673 173.561 284.661 173.578 280.931C173.596 277.202 171.247 274.168 168.332 274.154C165.417 274.141 163.04 277.153 163.023 280.882C163.005 284.611 165.354 287.645 168.269 287.659Z" fill="#EEE7E7"/>
</svg>
