<svg width="106" height="81" viewBox="0 0 106 81" fill="none" xmlns="http://www.w3.org/2000/svg">
<rect x="0.09375" y="0.953125" width="105.458" height="79.0937" rx="26.3646" fill="#4CFF5E" fill-opacity="0.71"/>
<path d="M61.8857 32.2611V48.7389C61.8857 49.1759 61.712 49.5951 61.403 49.9041C61.094 50.2131 60.6749 50.3867 60.2379 50.3867H56.5303C56.0933 50.3867 55.6742 50.2131 55.3652 49.9041C55.0562 49.5951 54.8826 49.1759 54.8826 48.7389V32.2611C54.8826 31.824 55.0562 31.4049 55.3652 31.0959C55.6742 30.7869 56.0933 30.6133 56.5303 30.6133H60.2379C60.6749 30.6133 61.094 30.7869 61.403 31.0959C61.712 31.4049 61.8857 31.824 61.8857 32.2611ZM49.1153 30.6133H45.4078C44.9708 30.6133 44.5517 30.7869 44.2426 31.0959C43.9336 31.4049 43.76 31.824 43.76 32.2611V48.7389C43.76 49.1759 43.9336 49.5951 44.2426 49.9041C44.5517 50.2131 44.9708 50.3867 45.4078 50.3867H49.1153C49.5523 50.3867 49.9715 50.2131 50.2805 49.9041C50.5895 49.5951 50.7631 49.1759 50.7631 48.7389V32.2611C50.7631 31.824 50.5895 31.4049 50.2805 31.0959C49.9715 30.7869 49.5523 30.6133 49.1153 30.6133V30.6133Z" fill="#471515"/>
</svg>
