<svg width="163" height="40" viewBox="0 0 163 40" fill="none" xmlns="http://www.w3.org/2000/svg">
<rect x="0.823893" y="0.823893" width="160.673" height="37.8991" rx="18.9495" fill="#4DDA6E" fill-opacity="0.15"/>
<path d="M21.4215 12.3585V9.06291C21.4215 8.8444 21.5083 8.63484 21.6629 8.48033C21.8174 8.32582 22.0269 8.23901 22.2454 8.23901C22.464 8.23901 22.6735 8.32582 22.828 8.48033C22.9825 8.63484 23.0693 8.8444 23.0693 9.06291V12.3585C23.0693 12.577 22.9825 12.7865 22.828 12.9411C22.6735 13.0956 22.464 13.1824 22.2454 13.1824C22.0269 13.1824 21.8174 13.0956 21.6629 12.9411C21.5083 12.7865 21.4215 12.577 21.4215 12.3585ZM25.541 13.1824C25.7595 13.1824 25.9691 13.0956 26.1236 12.9411C26.2781 12.7865 26.3649 12.577 26.3649 12.3585V9.06291C26.3649 8.8444 26.2781 8.63484 26.1236 8.48033C25.9691 8.32582 25.7595 8.23901 25.541 8.23901C25.3225 8.23901 25.1129 8.32582 24.9584 8.48033C24.8039 8.63484 24.7171 8.8444 24.7171 9.06291V12.3585C24.7171 12.577 24.8039 12.7865 24.9584 12.9411C25.1129 13.0956 25.3225 13.1824 25.541 13.1824ZM28.8366 13.1824C29.0551 13.1824 29.2647 13.0956 29.4192 12.9411C29.5737 12.7865 29.6605 12.577 29.6605 12.3585V9.06291C29.6605 8.8444 29.5737 8.63484 29.4192 8.48033C29.2647 8.32582 29.0551 8.23901 28.8366 8.23901C28.6181 8.23901 28.4085 8.32582 28.254 8.48033C28.0995 8.63484 28.0127 8.8444 28.0127 9.06291V12.3585C28.0127 12.577 28.0995 12.7865 28.254 12.9411C28.4085 13.0956 28.6181 13.1824 28.8366 13.1824ZM38.7233 18.9496V19.7735C38.7227 20.8211 38.3231 21.8291 37.6056 22.5925C36.8882 23.3559 35.9068 23.8172 34.8613 23.8827C34.2938 25.4699 33.3379 26.8897 32.0807 28.0124H34.6038C34.8223 28.0124 35.0319 28.0992 35.1864 28.2538C35.3409 28.4083 35.4277 28.6178 35.4277 28.8363C35.4277 29.0548 35.3409 29.2644 35.1864 29.4189C35.0319 29.5734 34.8223 29.6602 34.6038 29.6602H16.4782C16.2597 29.6602 16.0501 29.5734 15.8956 29.4189C15.7411 29.2644 15.6543 29.0548 15.6543 28.8363C15.6543 28.6178 15.7411 28.4083 15.8956 28.2538C16.0501 28.0992 16.2597 28.0124 16.4782 28.0124H19.0014C17.9514 27.0829 17.1103 25.9416 16.5334 24.6635C15.9565 23.3854 15.6569 21.9997 15.6543 20.5974V15.654C15.6543 15.4355 15.7411 15.226 15.8956 15.0715C16.0501 14.917 16.2597 14.8302 16.4782 14.8302H34.6038C35.6964 14.8302 36.7442 15.2642 37.5167 16.0367C38.2893 16.8093 38.7233 17.8571 38.7233 18.9496ZM33.7799 16.4779H17.3021V20.5974C17.3054 22.1441 17.7424 23.6588 18.5635 24.9695C19.3845 26.2802 20.5566 27.3345 21.9468 28.0124H29.1352C30.1737 27.505 31.0942 26.7854 31.8375 25.9003C32.5807 25.0151 33.1302 23.984 33.4504 22.8734C33.4619 22.8547 33.4689 22.8335 33.471 22.8116C33.678 22.0918 33.782 21.3464 33.7799 20.5974V16.4779ZM37.0755 18.9496C37.0749 18.439 36.9162 17.941 36.6211 17.5243C36.3261 17.1075 35.9092 16.7923 35.4277 16.6221V20.5974C35.4284 21.1148 35.387 21.6315 35.3041 22.1422C35.8153 21.9912 36.264 21.6789 36.5832 21.2521C36.9025 20.8252 37.0751 20.3066 37.0755 19.7735V18.9496Z" fill="#14401D"/>
<path d="M47.3451 22.4018C47.3451 23.7149 47.8182 24.7351 48.7644 25.4624C49.717 26.1898 50.9657 26.5534 52.5105 26.5534C54.0553 26.5534 55.2847 26.1865 56.1987 25.4528C57.1127 24.7125 57.5697 23.7374 57.5697 22.5273C57.5697 21.343 57.2157 20.4257 56.5077 19.7756C55.8061 19.1255 54.7215 18.5913 53.2539 18.1729C51.8314 17.761 50.8949 17.3941 50.4443 17.0722C50.0002 16.744 49.7781 16.2934 49.7781 15.7205C49.7781 15.0962 49.9905 14.6038 50.4154 14.2433C50.8466 13.8764 51.516 13.693 52.4236 13.693C53.3183 13.693 53.9941 13.9086 54.4511 14.3399C54.9081 14.7647 55.1367 15.3311 55.1367 16.0391V16.2226H57.2994V16.0198C57.2994 14.8033 56.8552 13.8185 55.967 13.0654C55.0852 12.3123 53.9008 11.9358 52.4139 11.9358C50.9206 11.9358 49.7459 12.2994 48.8899 13.0268C48.0338 13.7541 47.6058 14.6874 47.6058 15.8267C47.6122 16.9403 47.9501 17.806 48.6195 18.4239C49.2954 19.0354 50.3767 19.5568 51.8636 19.988C53.2668 20.3935 54.2066 20.7765 54.6829 21.137C55.1656 21.4974 55.407 21.9866 55.407 22.6045C55.407 23.2611 55.156 23.7921 54.6539 24.1976C54.1583 24.5967 53.4406 24.7962 52.5008 24.7962C51.5611 24.7962 50.8305 24.5967 50.3092 24.1976C49.7878 23.7921 49.5271 23.1871 49.5271 22.3825V22.1701H47.3451V22.4018ZM59.6069 26.2734H61.7214V19.3605C61.9338 18.8841 62.2363 18.5044 62.6289 18.2212C63.0216 17.9315 63.4818 17.7867 64.0096 17.7867C64.6146 17.7867 65.0845 17.9476 65.4192 18.2694C65.7539 18.5913 65.9213 19.132 65.9213 19.8915V26.2734H68.0357V19.8239C68.0357 18.4851 67.7332 17.526 67.1282 16.9467C66.5295 16.3674 65.7604 16.0778 64.8206 16.0778C64.1448 16.0778 63.5397 16.2129 63.0055 16.4833C62.4712 16.7536 62.04 17.1108 61.7117 17.555V11.5592H59.6069V26.2734ZM70.0343 21.4266C70.0343 22.9586 70.4784 24.1976 71.3667 25.1438C72.255 26.0836 73.4296 26.5534 74.8908 26.5534C76.3583 26.5534 77.5362 26.0836 78.4245 25.1438C79.3128 24.1976 79.7569 22.9586 79.7569 21.4266V21.1177C79.7569 19.5922 79.3128 18.3596 78.4245 17.4198C77.5362 16.4736 76.3583 16.0005 74.8908 16.0005C73.4296 16.0005 72.255 16.4736 71.3667 17.4198C70.4784 18.3596 70.0343 19.5922 70.0343 21.1177V21.4266ZM72.1874 21.0694C72.1874 20.0717 72.4159 19.2543 72.8729 18.617C73.3363 17.9798 74.0089 17.6612 74.8908 17.6612C75.7726 17.6612 76.442 17.9798 76.899 18.617C77.3625 19.2543 77.5942 20.0717 77.5942 21.0694V21.4749C77.5942 22.479 77.3657 23.2997 76.9087 23.9369C76.4517 24.5677 75.779 24.8831 74.8908 24.8831C74.0025 24.8831 73.3299 24.5677 72.8729 23.9369C72.4159 23.2997 72.1874 22.479 72.1874 21.4749V21.0694ZM81.8327 26.2734H83.9472V19.4474C84.1403 19.0097 84.4299 18.646 84.8161 18.3563C85.2087 18.0667 85.6657 17.9219 86.1871 17.9219C86.3545 17.9219 86.5057 17.9315 86.6409 17.9508C86.7825 17.9637 86.9145 17.983 87.0368 18.0088V16.1357C86.9724 16.1099 86.8662 16.0842 86.7181 16.0585C86.5701 16.0263 86.4253 16.0102 86.2837 16.0102C85.743 16.0102 85.2731 16.1614 84.874 16.464C84.475 16.76 84.1563 17.1108 83.9182 17.5164H83.8603L83.8023 16.2805H81.8327V26.2734ZM87.7802 17.8639H93.6601V16.2805H87.7802V17.8639ZM89.4698 23.6087C89.4698 24.6321 89.708 25.3787 90.1843 25.8486C90.6606 26.3185 91.301 26.5534 92.1056 26.5534C92.4275 26.5534 92.7235 26.5245 92.9939 26.4665C93.2642 26.4086 93.4766 26.3442 93.6311 26.2734V24.6417C93.4702 24.7061 93.3061 24.7576 93.1387 24.7962C92.9778 24.8284 92.8137 24.8445 92.6463 24.8445C92.2859 24.8445 92.0155 24.7512 91.8353 24.5645C91.6551 24.3778 91.5649 24.0399 91.5649 23.5507V13.7026H89.4698V16.8695V17.1302V23.6087ZM100.312 26.2734H105.362C106.778 26.2734 107.911 25.9226 108.76 25.221C109.617 24.513 110.045 23.5218 110.045 22.2473C110.045 21.3333 109.826 20.5963 109.388 20.0363C108.95 19.4763 108.39 19.0966 107.708 18.897V18.8584C108.262 18.6653 108.725 18.3209 109.098 17.8253C109.478 17.3297 109.668 16.6925 109.668 15.9136C109.668 14.6456 109.259 13.7123 108.442 13.1137C107.631 12.5151 106.511 12.2158 105.082 12.2158H100.312V26.2734ZM102.446 24.6031V19.7756H105.304C106.192 19.7756 106.842 19.9945 107.254 20.4322C107.673 20.8634 107.882 21.4459 107.882 22.1797C107.882 22.9264 107.673 23.5185 107.254 23.9562C106.842 24.3875 106.192 24.6031 105.304 24.6031H102.446ZM102.446 18.1632V13.8957H105.024C105.906 13.8957 106.543 14.0792 106.936 14.4461C107.328 14.8065 107.525 15.3279 107.525 16.0102C107.525 16.686 107.328 17.2138 106.936 17.5936C106.543 17.9734 105.906 18.1632 105.024 18.1632H102.446ZM112.246 26.2734H114.36V19.4474C114.553 19.0097 114.843 18.646 115.229 18.3563C115.622 18.0667 116.079 17.9219 116.6 17.9219C116.768 17.9219 116.919 17.9315 117.054 17.9508C117.196 17.9637 117.328 17.983 117.45 18.0088V16.1357C117.386 16.1099 117.279 16.0842 117.131 16.0585C116.983 16.0263 116.839 16.0102 116.697 16.0102C116.156 16.0102 115.686 16.1614 115.287 16.464C114.888 16.76 114.57 17.1108 114.331 17.5164H114.274L114.216 16.2805H112.246V26.2734ZM118.251 21.4266C118.251 22.9521 118.679 24.188 119.535 25.1341C120.392 26.0803 121.605 26.5534 123.175 26.5534C124.167 26.5534 125.007 26.3507 125.695 25.9452C126.384 25.5332 126.886 25.0633 127.202 24.5355L125.763 23.5314C125.493 23.9047 125.142 24.2266 124.711 24.4969C124.279 24.7673 123.761 24.9024 123.156 24.9024C122.223 24.9024 121.524 24.5806 121.061 23.9369C120.604 23.2868 120.375 22.4662 120.375 21.4749V21.0597C120.375 20.0685 120.591 19.251 121.022 18.6074C121.454 17.9573 122.1 17.6322 122.963 17.6322C123.697 17.6322 124.254 17.8704 124.633 18.3467C125.02 18.8166 125.209 19.383 125.203 20.046V20.2584H119.584V21.7549H127.308V20.9535C127.308 19.4216 126.925 18.2147 126.159 17.3329C125.393 16.4447 124.315 16.0005 122.924 16.0005C121.528 16.0005 120.398 16.4736 119.535 17.4198C118.679 18.366 118.251 19.5986 118.251 21.1177V21.4266ZM128.756 23.3383C128.756 24.3617 129.084 25.1374 129.741 25.6652C130.397 26.193 131.208 26.4569 132.174 26.4569C133.004 26.4569 133.686 26.3024 134.221 25.9934C134.761 25.678 135.141 25.3176 135.36 24.9121C135.379 25.1631 135.424 25.4141 135.495 25.6652C135.566 25.9098 135.643 26.1125 135.727 26.2734H137.783V26.119C137.661 25.8422 137.565 25.5203 137.494 25.1535C137.429 24.7866 137.397 24.3939 137.397 23.9755V19.428C137.397 18.2694 137.053 17.4102 136.364 16.8502C135.675 16.2837 134.703 16.0005 133.448 16.0005C132.2 16.0005 131.199 16.2934 130.446 16.8791C129.699 17.4649 129.326 18.1697 129.326 18.9936V19.1094H131.411V19.0129C131.411 18.6074 131.562 18.263 131.865 17.9798C132.174 17.6966 132.679 17.555 133.381 17.555C134.082 17.555 134.575 17.7255 134.858 18.0667C135.148 18.4078 135.292 18.8584 135.292 19.4184V20.0846H133.11C131.842 20.0846 130.8 20.3678 129.982 20.9342C129.165 21.5007 128.756 22.302 128.756 23.3383ZM130.87 23.2031C130.87 22.6625 131.08 22.2409 131.498 21.9383C131.923 21.6294 132.557 21.4749 133.4 21.4749H135.292V22.7494C135.292 23.29 135.035 23.7857 134.52 24.2362C134.012 24.6804 133.426 24.9024 132.763 24.9024C132.113 24.9024 131.633 24.7512 131.324 24.4486C131.022 24.1461 130.87 23.731 130.87 23.2031ZM140.033 26.2734H142.147V22.9907L148.462 16.2805H146.087L142.147 20.5287V11.5592H140.033V26.2734ZM146.434 26.2734H148.906L144.03 19.766L142.698 21.2335L146.434 26.2734Z" fill="#14401D"/>
<rect x="0.823893" y="0.823893" width="160.673" height="37.8991" rx="18.9495" stroke="#14401D" stroke-width="1.64779"/>
</svg>
