<svg width="64" height="47" viewBox="0 0 64 47" fill="none" xmlns="http://www.w3.org/2000/svg">
<rect x="0.734375" y="0.5" width="63" height="46" rx="19.7734" fill="#DBFF4C" fill-opacity="0.15"/>
<g clip-path="url(#clip0_314_658)">
<path d="M45.1283 23.4997C45.1296 23.7759 45.0614 24.0479 44.93 24.2909C44.7986 24.5338 44.6083 24.7399 44.3765 24.89L35.1901 30.7912C34.9408 30.9527 34.6525 31.0438 34.3556 31.0549C34.0588 31.066 33.7645 30.9966 33.5038 30.8542C33.2432 30.7117 33.0259 30.5014 32.8749 30.2456C32.724 29.9898 32.645 29.6979 32.6463 29.4008V25.0136L23.6556 30.7912C23.4063 30.9527 23.118 31.0438 22.8211 31.0549C22.5243 31.066 22.23 30.9966 21.9693 30.8542C21.7087 30.7117 21.4914 30.5014 21.3404 30.2456C21.1895 29.9898 21.1105 29.6979 21.1118 29.4008V17.5986C21.1105 17.3015 21.1895 17.0096 21.3404 16.7538C21.4914 16.498 21.7087 16.2877 21.9693 16.1452C22.23 16.0028 22.5243 15.9334 22.8211 15.9445C23.118 15.9556 23.4063 16.0467 23.6556 16.2083L32.6463 21.9858V17.5986C32.645 17.3015 32.724 17.0096 32.8749 16.7538C33.0259 16.498 33.2432 16.2877 33.5038 16.1452C33.7645 16.0028 34.0588 15.9334 34.3556 15.9445C34.6525 15.9556 34.9408 16.0467 35.1901 16.2083L44.3765 22.1094C44.6083 22.2596 44.7986 22.4656 44.93 22.7085C45.0614 22.9515 45.1296 23.2235 45.1283 23.4997Z" fill="#471515"/>
</g>
<defs>
<clipPath id="clip0_314_658">
<rect width="26.3646" height="26.3646" fill="white" transform="translate(19.052 10.3176)"/>
</clipPath>
</defs>
</svg>
